<svg xmlns="http://www.w3.org/2000/svg" version="1.1" xmlns:xlink="http://www.w3.org/1999/xlink" xmlns:svgjs="http://svgjs.dev/svgjs" viewBox="0 0 6.6282073626711355 6.115231592995111"><g transform="matrix(1,0,0,1,0.5304601876832242,3.6223964053118873)"><rect width="6.6282073626711355" height="6.6282073626711355" x="-0.5304601876832242" y="-3.8788842901498994" fill="#ffffff"></rect><g><path d=" M 0.7106233520507814 1.0649999999999997 Q 0.6866233520507814 1.0649999999999997 0.6723733520507814 1.0514999999999997 Q 0.6581233520507814 1.0379999999999998 0.6551233520507814 1.0184999999999997 L 0.4841233520507814 0.05699999999999972 Q 0.4826233520507814 0.053999999999999604 0.4826233520507814 0.05099999999999971 Q 0.4826233520507814 0.0479999999999996 0.4826233520507814 0.046499999999999764 Q 0.4826233520507814 0.03449999999999975 0.4916233520507814 0.024749999999999606 Q 0.5006233520507815 0.01499999999999968 0.5141233520507814 0.01499999999999968 L 0.6716233520507814 0.01499999999999968 Q 0.7106233520507814 0.01499999999999968 0.7151233520507814 0.046499999999999764 L 0.8276233520507814 0.6809999999999997 L 0.9491233520507814 0.28649999999999975 Q 0.9536233520507814 0.27449999999999974 0.9641233520507814 0.2609999999999997 Q 0.9746233520507814 0.24749999999999972 0.9986233520507815 0.24749999999999972 L 1.0931233520507813 0.24749999999999972 Q 1.1171233520507813 0.24749999999999972 1.1276233520507815 0.2609999999999997 Q 1.1381233520507814 0.27449999999999974 1.1411233520507813 0.28649999999999975 L 1.2641233520507815 0.6794999999999998 L 1.3751233520507813 0.046499999999999764 Q 1.3796233520507815 0.01499999999999968 1.4201233520507814 0.01499999999999968 L 1.5776233520507814 0.01499999999999968 Q 1.5911233520507815 0.01499999999999968 1.6001233520507814 0.024749999999999606 Q 1.6091233520507815 0.03449999999999975 1.6091233520507815 0.046499999999999764 Q 1.6091233520507815 0.0479999999999996 1.6091233520507815 0.05099999999999971 Q 1.6091233520507815 0.053999999999999604 1.6076233520507814 0.05699999999999972 L 1.4366233520507814 1.0184999999999997 Q 1.4336233520507815 1.0379999999999998 1.4193733520507814 1.0514999999999997 Q 1.4051233520507815 1.0649999999999997 1.3811233520507815 1.0649999999999997 L 1.2596233520507814 1.0649999999999997 Q 1.2356233520507813 1.0649999999999997 1.2228733520507813 1.0522499999999997 Q 1.2101233520507813 1.0394999999999996 1.2056233520507815 1.0259999999999998 L 1.0451233520507814 0.5609999999999997 L 0.8861233520507814 1.0259999999999998 Q 0.8816233520507815 1.0394999999999996 0.8688733520507814 1.0522499999999997 Q 0.8561233520507814 1.0649999999999997 0.8306233520507814 1.0649999999999997 L 0.7106233520507814 1.0649999999999997 M 1.8266204223632816 1.0649999999999997 Q 1.8101204223632816 1.0649999999999997 1.7996204223632815 1.0544999999999998 Q 1.7891204223632815 1.0439999999999998 1.7891204223632815 1.0274999999999996 L 1.7891204223632815 0.05249999999999977 Q 1.7891204223632815 0.03599999999999981 1.7996204223632815 0.025499999999999634 Q 1.8101204223632816 0.01499999999999968 1.8266204223632816 0.01499999999999968 L 1.9961204223632816 0.01499999999999968 Q 2.0126204223632813 0.01499999999999968 2.0231204223632817 0.025499999999999634 Q 2.0336204223632817 0.03599999999999981 2.0336204223632817 0.05249999999999977 L 2.0336204223632817 1.0274999999999996 Q 2.0336204223632817 1.0439999999999998 2.0231204223632817 1.0544999999999998 Q 2.0126204223632813 1.0649999999999997 1.9961204223632816 1.0649999999999997 L 1.8266204223632816 1.0649999999999997 M 2.3080816040039065 1.0649999999999997 Q 2.2915816040039068 1.0649999999999997 2.281081604003907 1.0544999999999998 Q 2.270581604003907 1.0439999999999998 2.270581604003907 1.0274999999999996 L 2.270581604003907 0.05249999999999977 Q 2.270581604003907 0.03599999999999981 2.281081604003907 0.025499999999999634 Q 2.2915816040039068 0.01499999999999968 2.3080816040039065 0.01499999999999968 L 2.4745816040039066 0.01499999999999968 Q 2.4910816040039068 0.01499999999999968 2.5015816040039067 0.025499999999999634 Q 2.5120816040039067 0.03599999999999981 2.5120816040039067 0.05249999999999977 L 2.5120816040039067 0.8639999999999997 L 2.9770816040039065 0.8639999999999997 Q 2.9935816040039067 0.8639999999999997 3.0040816040039067 0.8744999999999997 Q 3.0145816040039066 0.8849999999999998 3.0145816040039066 0.9014999999999997 L 3.0145816040039066 1.0274999999999996 Q 3.0145816040039066 1.0439999999999998 3.0040816040039067 1.0544999999999998 Q 2.9935816040039067 1.0649999999999997 2.9770816040039065 1.0649999999999997 L 2.3080816040039065 1.0649999999999997 M 3.2051006469726566 1.0649999999999997 Q 3.188600646972657 1.0649999999999997 3.178100646972657 1.0544999999999998 Q 3.167600646972657 1.0439999999999998 3.167600646972657 1.0274999999999996 L 3.167600646972657 0.05249999999999977 Q 3.167600646972657 0.03599999999999981 3.178100646972657 0.025499999999999634 Q 3.188600646972657 0.01499999999999968 3.2051006469726566 0.01499999999999968 L 3.3716006469726567 0.01499999999999968 Q 3.388100646972657 0.01499999999999968 3.398600646972657 0.025499999999999634 Q 3.409100646972657 0.03599999999999981 3.409100646972657 0.05249999999999977 L 3.409100646972657 0.8639999999999997 L 3.8741006469726567 0.8639999999999997 Q 3.890600646972657 0.8639999999999997 3.901100646972657 0.8744999999999997 Q 3.9116006469726567 0.8849999999999998 3.9116006469726567 0.9014999999999997 L 3.9116006469726567 1.0274999999999996 Q 3.9116006469726567 1.0439999999999998 3.901100646972657 1.0544999999999998 Q 3.890600646972657 1.0649999999999997 3.8741006469726567 1.0649999999999997 L 3.2051006469726566 1.0649999999999997 M 3.929662902832032 0.3794999999999997 Q 3.910162902832032 0.3794999999999997 3.901912902832032 0.36824999999999974 Q 3.8936629028320318 0.35699999999999976 3.890662902832032 0.34199999999999975 L 3.859162902832032 0.04199999999999959 Q 3.8576629028320317 0.022499999999999742 3.867412902832032 0.01124999999999976 Q 3.877162902832032 -2.220446049250313e-16 3.8936629028320318 -2.220446049250313e-16 L 4.043662902832032 -2.220446049250313e-16 Q 4.0616629028320315 -2.220446049250313e-16 4.071412902832032 0.01124999999999976 Q 4.081162902832032 0.022499999999999742 4.078162902832032 0.04199999999999959 L 4.046662902832032 0.34199999999999975 Q 4.045162902832032 0.35699999999999976 4.036912902832032 0.36824999999999974 Q 4.028662902832032 0.3794999999999997 4.007662902832032 0.3794999999999997 L 3.929662902832032 0.3794999999999997 M 4.6496973266601564 1.0799999999999996 Q 4.505697326660156 1.0799999999999996 4.408947326660156 1.0379999999999998 Q 4.312197326660157 0.9959999999999998 4.262697326660157 0.9284999999999997 Q 4.213197326660157 0.8609999999999998 4.210197326660157 0.7844999999999998 Q 4.210197326660157 0.7724999999999997 4.219197326660157 0.7627499999999997 Q 4.2281973266601565 0.7529999999999997 4.241697326660157 0.7529999999999997 L 4.402197326660157 0.7529999999999997 Q 4.421697326660157 0.7529999999999997 4.432197326660156 0.7612499999999998 Q 4.442697326660157 0.7694999999999997 4.451697326660157 0.7814999999999996 Q 4.4621973266601564 0.8069999999999997 4.485447326660156 0.8309999999999997 Q 4.508697326660156 0.8549999999999998 4.549197326660156 0.8707499999999997 Q 4.589697326660157 0.8864999999999997 4.6496973266601564 0.8864999999999997 Q 4.747197326660157 0.8864999999999997 4.795947326660157 0.8549999999999998 Q 4.844697326660157 0.8234999999999997 4.844697326660157 0.7694999999999997 Q 4.844697326660157 0.7304999999999997 4.818447326660157 0.7064999999999997 Q 4.7921973266601565 0.6824999999999997 4.735947326660156 0.6629999999999997 Q 4.679697326660157 0.6434999999999997 4.586697326660157 0.6209999999999998 Q 4.474197326660157 0.5969999999999998 4.395447326660157 0.5587499999999997 Q 4.316697326660156 0.5204999999999997 4.2769473266601565 0.45974999999999966 Q 4.237197326660157 0.3989999999999997 4.237197326660157 0.3089999999999997 Q 4.237197326660157 0.21899999999999975 4.286697326660157 0.14924999999999966 Q 4.336197326660157 0.07949999999999968 4.426197326660157 0.03974999999999973 Q 4.516197326660157 -2.220446049250313e-16 4.640697326660156 -2.220446049250313e-16 Q 4.741197326660156 -2.220446049250313e-16 4.818447326660157 0.02699999999999969 Q 4.895697326660157 0.053999999999999604 4.947447326660157 0.0974999999999997 Q 4.999197326660156 0.14099999999999968 5.0261973266601565 0.19049999999999967 Q 5.053197326660157 0.23999999999999966 5.054697326660157 0.28649999999999975 Q 5.054697326660157 0.29849999999999965 5.045697326660156 0.3082499999999997 Q 5.036697326660157 0.3179999999999997 5.023197326660156 0.3179999999999997 L 4.855197326660156 0.3179999999999997 Q 4.840197326660157 0.3179999999999997 4.828197326660156 0.3119999999999997 Q 4.8161973266601565 0.3059999999999997 4.808697326660156 0.2909999999999997 Q 4.799697326660157 0.25199999999999967 4.755447326660157 0.22274999999999967 Q 4.711197326660157 0.19349999999999967 4.640697326660156 0.19349999999999967 Q 4.567197326660157 0.19349999999999967 4.524447326660157 0.2204999999999997 Q 4.481697326660156 0.24749999999999972 4.481697326660156 0.3029999999999997 Q 4.481697326660156 0.33899999999999975 4.503447326660156 0.3637499999999997 Q 4.525197326660156 0.38849999999999973 4.576947326660156 0.40724999999999967 Q 4.6286973266601565 0.4259999999999997 4.714197326660156 0.4484999999999997 Q 4.846197326660157 0.4754999999999997 4.928697326660156 0.5129999999999997 Q 5.011197326660157 0.5504999999999998 5.0501973266601565 0.6097499999999998 Q 5.089197326660156 0.6689999999999997 5.089197326660156 0.7589999999999997 Q 5.089197326660156 0.8594999999999997 5.032947326660157 0.9314999999999998 Q 4.976697326660156 1.0034999999999998 4.878447326660156 1.0417499999999997 Q 4.780197326660157 1.0799999999999996 4.6496973266601564 1.0799999999999996" fill="#0e1425" fill-rule="nonzero"></path></g><g><path d=" M 0.19725 1.9548749999999997 Q 0.18975 1.9548749999999997 0.184875 1.9499999999999997 Q 0.18 1.9451249999999998 0.18 1.9376249999999997 L 0.18 1.4966249999999997 L 0.036000000000000004 1.4966249999999997 Q 0.0285 1.4966249999999997 0.023625 1.4917499999999997 Q 0.01875 1.4868749999999997 0.01875 1.4793749999999997 L 0.01875 1.4478749999999998 Q 0.01875 1.4396249999999997 0.023625 1.4347499999999997 Q 0.0285 1.4298749999999996 0.036000000000000004 1.4298749999999996 L 0.3975 1.4298749999999996 Q 0.40575 1.4298749999999996 0.410625 1.4347499999999997 Q 0.41550000000000004 1.4396249999999997 0.41550000000000004 1.4478749999999998 L 0.41550000000000004 1.4793749999999997 Q 0.41550000000000004 1.4868749999999997 0.410625 1.4917499999999997 Q 0.40575 1.4966249999999997 0.3975 1.4966249999999997 L 0.25425000000000003 1.4966249999999997 L 0.25425000000000003 1.9376249999999997 Q 0.25425000000000003 1.9451249999999998 0.249375 1.9499999999999997 Q 0.2445 1.9548749999999997 0.23625000000000002 1.9548749999999997 L 0.19725 1.9548749999999997 M 0.524234619140625 1.9548749999999997 Q 0.515984619140625 1.9548749999999997 0.511484619140625 1.9499999999999997 Q 0.506984619140625 1.9451249999999998 0.506984619140625 1.9376249999999997 L 0.506984619140625 1.4478749999999998 Q 0.506984619140625 1.4396249999999997 0.511484619140625 1.4347499999999997 Q 0.515984619140625 1.4298749999999996 0.524234619140625 1.4298749999999996 L 0.833984619140625 1.4298749999999996 Q 0.842234619140625 1.4298749999999996 0.8467346191406251 1.4347499999999997 Q 0.851234619140625 1.4396249999999997 0.851234619140625 1.4478749999999998 L 0.851234619140625 1.4763749999999995 Q 0.851234619140625 1.4846249999999996 0.8467346191406251 1.4891249999999996 Q 0.842234619140625 1.4936249999999998 0.833984619140625 1.4936249999999998 L 0.578984619140625 1.4936249999999998 L 0.578984619140625 1.6578749999999998 L 0.8174846191406251 1.6578749999999998 Q 0.825734619140625 1.6578749999999998 0.830234619140625 1.6627499999999997 Q 0.8347346191406251 1.6676249999999997 0.8347346191406251 1.6758749999999996 L 0.8347346191406251 1.7036249999999997 Q 0.8347346191406251 1.7111249999999998 0.830234619140625 1.7159999999999997 Q 0.825734619140625 1.7208749999999997 0.8174846191406251 1.7208749999999997 L 0.578984619140625 1.7208749999999997 L 0.578984619140625 1.8911249999999997 L 0.839984619140625 1.8911249999999997 Q 0.848234619140625 1.8911249999999997 0.8527346191406251 1.8956249999999997 Q 0.857234619140625 1.9001249999999996 0.857234619140625 1.9083749999999997 L 0.857234619140625 1.9376249999999997 Q 0.857234619140625 1.9451249999999998 0.8527346191406251 1.9499999999999997 Q 0.848234619140625 1.9548749999999997 0.839984619140625 1.9548749999999997 L 0.524234619140625 1.9548749999999997 M 1.15273388671875 1.9623749999999998 Q 1.08373388671875 1.9623749999999998 1.03835888671875 1.9368749999999997 Q 0.99298388671875 1.9113749999999996 0.96973388671875 1.8656249999999996 Q 0.9464838867187501 1.8198749999999997 0.94423388671875 1.7591249999999996 Q 0.94348388671875 1.7283749999999998 0.94348388671875 1.6931249999999998 Q 0.94348388671875 1.6578749999999998 0.94423388671875 1.6256249999999997 Q 0.9464838867187501 1.5648749999999998 0.96973388671875 1.5191249999999996 Q 0.99298388671875 1.4733749999999997 1.03835888671875 1.4478749999999998 Q 1.08373388671875 1.4223749999999997 1.15273388671875 1.4223749999999997 Q 1.20448388671875 1.4223749999999997 1.24348388671875 1.4366249999999998 Q 1.28248388671875 1.4508749999999997 1.3083588867187501 1.4748749999999997 Q 1.33423388671875 1.4988749999999997 1.34773388671875 1.5284999999999997 Q 1.36123388671875 1.5581249999999998 1.36273388671875 1.5896249999999996 Q 1.36348388671875 1.5963749999999997 1.35860888671875 1.6008749999999998 Q 1.35373388671875 1.6053749999999996 1.34698388671875 1.6053749999999996 L 1.30573388671875 1.6053749999999996 Q 1.29898388671875 1.6053749999999996 1.29410888671875 1.6016249999999996 Q 1.28923388671875 1.5978749999999997 1.28698388671875 1.5881249999999998 Q 1.2742338867187502 1.5296249999999998 1.23935888671875 1.5078749999999996 Q 1.20448388671875 1.4861249999999997 1.15273388671875 1.4861249999999997 Q 1.09198388671875 1.4861249999999997 1.05673388671875 1.5202499999999997 Q 1.02148388671875 1.5543749999999996 1.01923388671875 1.6293749999999996 Q 1.01698388671875 1.6908749999999997 1.01923388671875 1.7553749999999997 Q 1.02148388671875 1.8303749999999996 1.05673388671875 1.8644999999999996 Q 1.09198388671875 1.8986249999999998 1.15273388671875 1.8986249999999998 Q 1.20448388671875 1.8986249999999998 1.23935888671875 1.8768749999999996 Q 1.2742338867187502 1.8551249999999997 1.28698388671875 1.7966249999999997 Q 1.28923388671875 1.7868749999999998 1.29410888671875 1.7831249999999996 Q 1.29898388671875 1.7793749999999997 1.30573388671875 1.7793749999999997 L 1.34698388671875 1.7793749999999997 Q 1.35373388671875 1.7793749999999997 1.35860888671875 1.7834999999999996 Q 1.36348388671875 1.7876249999999998 1.36273388671875 1.7943749999999996 Q 1.36123388671875 1.8258749999999997 1.34773388671875 1.8558749999999997 Q 1.33423388671875 1.8858749999999997 1.3083588867187501 1.9098749999999998 Q 1.28248388671875 1.9338749999999998 1.24348388671875 1.9481249999999997 Q 1.20448388671875 1.9623749999999998 1.15273388671875 1.9623749999999998 M 1.48799560546875 1.9548749999999997 Q 1.47974560546875 1.9548749999999997 1.47524560546875 1.9499999999999997 Q 1.47074560546875 1.9451249999999998 1.47074560546875 1.9376249999999997 L 1.47074560546875 1.4478749999999998 Q 1.47074560546875 1.4396249999999997 1.47524560546875 1.4347499999999997 Q 1.47974560546875 1.4298749999999996 1.48799560546875 1.4298749999999996 L 1.5262456054687499 1.4298749999999996 Q 1.53449560546875 1.4298749999999996 1.53937060546875 1.4347499999999997 Q 1.54424560546875 1.4396249999999997 1.54424560546875 1.4478749999999998 L 1.54424560546875 1.6548749999999997 L 1.80224560546875 1.6548749999999997 L 1.80224560546875 1.4478749999999998 Q 1.80224560546875 1.4396249999999997 1.80712060546875 1.4347499999999997 Q 1.81199560546875 1.4298749999999996 1.81949560546875 1.4298749999999996 L 1.85774560546875 1.4298749999999996 Q 1.86599560546875 1.4298749999999996 1.8708706054687498 1.4347499999999997 Q 1.87574560546875 1.4396249999999997 1.87574560546875 1.4478749999999998 L 1.87574560546875 1.9376249999999997 Q 1.87574560546875 1.9451249999999998 1.8708706054687498 1.9499999999999997 Q 1.86599560546875 1.9548749999999997 1.85774560546875 1.9548749999999997 L 1.81949560546875 1.9548749999999997 Q 1.81199560546875 1.9548749999999997 1.80712060546875 1.9499999999999997 Q 1.80224560546875 1.9451249999999998 1.80224560546875 1.9376249999999997 L 1.80224560546875 1.7223749999999998 L 1.54424560546875 1.7223749999999998 L 1.54424560546875 1.9376249999999997 Q 1.54424560546875 1.9451249999999998 1.53937060546875 1.9499999999999997 Q 1.53449560546875 1.9548749999999997 1.5262456054687499 1.9548749999999997 L 1.48799560546875 1.9548749999999997 M 2.37373388671875 1.9623749999999998 Q 2.3084838867187503 1.9623749999999998 2.26423388671875 1.9421249999999997 Q 2.21998388671875 1.9218749999999998 2.19635888671875 1.8899999999999997 Q 2.17273388671875 1.8581249999999998 2.17123388671875 1.8228749999999998 Q 2.17123388671875 1.8168749999999996 2.17610888671875 1.8119999999999996 Q 2.18098388671875 1.8071249999999996 2.18773388671875 1.8071249999999996 L 2.2259838867187502 1.8071249999999996 Q 2.23498388671875 1.8071249999999996 2.23948388671875 1.8116249999999996 Q 2.24398388671875 1.8161249999999998 2.24548388671875 1.8221249999999998 Q 2.2499838867187503 1.8401249999999998 2.26423388671875 1.8577499999999998 Q 2.27848388671875 1.8753749999999998 2.30510888671875 1.8869999999999998 Q 2.3317338867187503 1.8986249999999998 2.37373388671875 1.8986249999999998 Q 2.4382338867187503 1.8986249999999998 2.46860888671875 1.8757499999999996 Q 2.49898388671875 1.8528749999999996 2.49898388671875 1.8146249999999997 Q 2.49898388671875 1.7883749999999996 2.48285888671875 1.7722499999999997 Q 2.46673388671875 1.7561249999999997 2.43373388671875 1.7433749999999997 Q 2.40073388671875 1.7306249999999996 2.34823388671875 1.7156249999999997 Q 2.29348388671875 1.6998749999999996 2.25748388671875 1.6811249999999998 Q 2.22148388671875 1.6623749999999997 2.2038588867187503 1.6346249999999998 Q 2.18623388671875 1.6068749999999996 2.18623388671875 1.5641249999999998 Q 2.18623388671875 1.5236249999999996 2.20798388671875 1.4917499999999997 Q 2.22973388671875 1.4598749999999998 2.27098388671875 1.4411249999999995 Q 2.31223388671875 1.4223749999999997 2.36998388671875 1.4223749999999997 Q 2.41648388671875 1.4223749999999997 2.45135888671875 1.4347499999999997 Q 2.4862338867187503 1.4471249999999998 2.5094838867187503 1.4677499999999997 Q 2.5327338867187503 1.4883749999999996 2.54473388671875 1.5119999999999996 Q 2.55673388671875 1.5356249999999996 2.55748388671875 1.5581249999999998 Q 2.55748388671875 1.5633749999999997 2.5537338867187502 1.5682499999999997 Q 2.54998388671875 1.5731249999999997 2.5417338867187502 1.5731249999999997 L 2.50198388671875 1.5731249999999997 Q 2.49673388671875 1.5731249999999997 2.49110888671875 1.5701249999999998 Q 2.4854838867187503 1.5671249999999997 2.48248388671875 1.5588749999999996 Q 2.47798388671875 1.5281249999999997 2.4479838867187502 1.5071249999999996 Q 2.41798388671875 1.4861249999999997 2.36998388671875 1.4861249999999997 Q 2.3212338867187503 1.4861249999999997 2.29085888671875 1.5048749999999997 Q 2.2604838867187502 1.5236249999999996 2.2604838867187502 1.5633749999999997 Q 2.2604838867187502 1.5888749999999998 2.2747338867187503 1.6057499999999996 Q 2.28898388671875 1.6226249999999998 2.3197338867187502 1.6353749999999998 Q 2.35048388671875 1.6481249999999996 2.39998388671875 1.6623749999999997 Q 2.4599838867187502 1.6788749999999997 2.49823388671875 1.6972499999999997 Q 2.53648388671875 1.7156249999999997 2.5548588867187503 1.7429999999999997 Q 2.57323388671875 1.7703749999999996 2.57323388671875 1.8131249999999997 Q 2.57323388671875 1.8603749999999997 2.54848388671875 1.8937499999999996 Q 2.52373388671875 1.9271249999999998 2.47910888671875 1.9447499999999998 Q 2.43448388671875 1.9623749999999998 2.37373388671875 1.9623749999999998 M 2.8769908447265626 1.9623749999999998 Q 2.8139908447265625 1.9623749999999998 2.7686158447265625 1.9398749999999998 Q 2.7232408447265626 1.9173749999999996 2.6988658447265625 1.8712499999999996 Q 2.6744908447265625 1.8251249999999997 2.6744908447265625 1.7523749999999998 L 2.6744908447265625 1.4478749999999998 Q 2.6744908447265625 1.4396249999999997 2.6789908447265622 1.4347499999999997 Q 2.6834908447265624 1.4298749999999996 2.6917408447265623 1.4298749999999996 L 2.7299908447265624 1.4298749999999996 Q 2.7382408447265623 1.4298749999999996 2.7431158447265624 1.4347499999999997 Q 2.7479908447265626 1.4396249999999997 2.7479908447265626 1.4478749999999998 L 2.7479908447265626 1.7538749999999996 Q 2.7479908447265626 1.8273749999999997 2.7824908447265626 1.8626249999999998 Q 2.8169908447265626 1.8978749999999998 2.8769908447265626 1.8978749999999998 Q 2.936240844726562 1.8978749999999998 2.9711158447265626 1.8626249999999998 Q 3.005990844726562 1.8273749999999997 3.005990844726562 1.7538749999999996 L 3.005990844726562 1.4478749999999998 Q 3.005990844726562 1.4396249999999997 3.0108658447265624 1.4347499999999997 Q 3.0157408447265626 1.4298749999999996 3.0232408447265624 1.4298749999999996 L 3.0622408447265625 1.4298749999999996 Q 3.0697408447265624 1.4298749999999996 3.0746158447265626 1.4347499999999997 Q 3.0794908447265623 1.4396249999999997 3.0794908447265623 1.4478749999999998 L 3.0794908447265623 1.7523749999999998 Q 3.0794908447265623 1.8251249999999997 3.0551158447265623 1.8712499999999996 Q 3.0307408447265622 1.9173749999999996 2.9857408447265623 1.9398749999999998 Q 2.9407408447265624 1.9623749999999998 2.8769908447265626 1.9623749999999998 M 3.2294824218750002 1.9548749999999997 Q 3.2212324218750004 1.9548749999999997 3.216732421875 1.9499999999999997 Q 3.212232421875 1.9451249999999998 3.212232421875 1.9376249999999997 L 3.212232421875 1.4478749999999998 Q 3.212232421875 1.4396249999999997 3.216732421875 1.4347499999999997 Q 3.2212324218750004 1.4298749999999996 3.2294824218750002 1.4298749999999996 L 3.4199824218750003 1.4298749999999996 Q 3.4754824218750002 1.4298749999999996 3.516357421875 1.4478749999999998 Q 3.557232421875 1.4658749999999996 3.579732421875 1.5014999999999996 Q 3.602232421875 1.5371249999999996 3.602232421875 1.5903749999999997 Q 3.602232421875 1.6436249999999997 3.579732421875 1.6788749999999997 Q 3.557232421875 1.7141249999999997 3.516357421875 1.7321249999999997 Q 3.4754824218750002 1.7501249999999997 3.4199824218750003 1.7501249999999997 L 3.287232421875 1.7501249999999997 L 3.287232421875 1.9376249999999997 Q 3.287232421875 1.9451249999999998 3.282357421875 1.9499999999999997 Q 3.2774824218750003 1.9548749999999997 3.2692324218750004 1.9548749999999997 L 3.2294824218750002 1.9548749999999997 M 3.286482421875 1.6871249999999998 L 3.416232421875 1.6871249999999998 Q 3.471732421875 1.6871249999999998 3.4994824218750002 1.6623749999999997 Q 3.5272324218750004 1.6376249999999997 3.5272324218750004 1.5903749999999997 Q 3.5272324218750004 1.5438749999999997 3.5002324218750003 1.5183749999999998 Q 3.473232421875 1.4928749999999997 3.416232421875 1.4928749999999997 L 3.286482421875 1.4928749999999997 L 3.286482421875 1.6871249999999998 M 3.7185040283203126 1.9548749999999997 Q 3.7102540283203127 1.9548749999999997 3.7057540283203125 1.9499999999999997 Q 3.7012540283203124 1.9451249999999998 3.7012540283203124 1.9376249999999997 L 3.7012540283203124 1.4478749999999998 Q 3.7012540283203124 1.4396249999999997 3.7057540283203125 1.4347499999999997 Q 3.7102540283203127 1.4298749999999996 3.7185040283203126 1.4298749999999996 L 3.9090040283203127 1.4298749999999996 Q 3.9645040283203126 1.4298749999999996 4.005379028320313 1.4478749999999998 Q 4.046254028320313 1.4658749999999996 4.0687540283203125 1.5014999999999996 Q 4.0912540283203125 1.5371249999999996 4.0912540283203125 1.5903749999999997 Q 4.0912540283203125 1.6436249999999997 4.0687540283203125 1.6788749999999997 Q 4.046254028320313 1.7141249999999997 4.005379028320313 1.7321249999999997 Q 3.9645040283203126 1.7501249999999997 3.9090040283203127 1.7501249999999997 L 3.7762540283203125 1.7501249999999997 L 3.7762540283203125 1.9376249999999997 Q 3.7762540283203125 1.9451249999999998 3.7713790283203124 1.9499999999999997 Q 3.7665040283203126 1.9548749999999997 3.7582540283203127 1.9548749999999997 L 3.7185040283203126 1.9548749999999997 M 3.7755040283203125 1.6871249999999998 L 3.9052540283203125 1.6871249999999998 Q 3.9607540283203124 1.6871249999999998 3.9885040283203126 1.6623749999999997 Q 4.016254028320312 1.6376249999999997 4.016254028320312 1.5903749999999997 Q 4.016254028320312 1.5438749999999997 3.9892540283203126 1.5183749999999998 Q 3.9622540283203125 1.4928749999999997 3.9052540283203125 1.4928749999999997 L 3.7755040283203125 1.4928749999999997 L 3.7755040283203125 1.6871249999999998 M 4.379275634765625 1.9623749999999998 Q 4.314775634765625 1.9623749999999998 4.269025634765625 1.9402499999999996 Q 4.223275634765625 1.9181249999999996 4.198525634765625 1.8719999999999997 Q 4.173775634765625 1.8258749999999997 4.170775634765625 1.7561249999999997 Q 4.170025634765625 1.7231249999999996 4.170025634765625 1.6927499999999998 Q 4.170025634765625 1.6623749999999997 4.170775634765625 1.6293749999999996 Q 4.173775634765625 1.5603749999999996 4.199650634765625 1.5142499999999997 Q 4.225525634765625 1.4681249999999997 4.271650634765625 1.4452499999999997 Q 4.317775634765625 1.4223749999999997 4.379275634765625 1.4223749999999997 Q 4.440025634765625 1.4223749999999997 4.486150634765625 1.4452499999999997 Q 4.532275634765625 1.4681249999999997 4.5585256347656244 1.5142499999999997 Q 4.5847756347656246 1.5603749999999996 4.587025634765625 1.6293749999999996 Q 4.588525634765625 1.6623749999999997 4.588525634765625 1.6927499999999998 Q 4.588525634765625 1.7231249999999996 4.587025634765625 1.7561249999999997 Q 4.5847756347656246 1.8258749999999997 4.5596506347656245 1.8719999999999997 Q 4.534525634765625 1.9181249999999996 4.488775634765625 1.9402499999999996 Q 4.4430256347656245 1.9623749999999998 4.379275634765625 1.9623749999999998 M 4.379275634765625 1.8986249999999998 Q 4.436275634765625 1.8986249999999998 4.472650634765625 1.8641249999999996 Q 4.509025634765625 1.8296249999999996 4.5120256347656245 1.7523749999999998 Q 4.5135256347656245 1.7186249999999996 4.5135256347656245 1.6919999999999997 Q 4.5135256347656245 1.6653749999999996 4.5120256347656245 1.6323749999999997 Q 4.510525634765625 1.5806249999999997 4.492900634765625 1.5483749999999996 Q 4.475275634765625 1.5161249999999997 4.446025634765625 1.5011249999999996 Q 4.416775634765625 1.4861249999999997 4.379275634765625 1.4861249999999997 Q 4.341775634765625 1.4861249999999997 4.312525634765625 1.5011249999999996 Q 4.283275634765625 1.5161249999999997 4.265650634765625 1.5483749999999996 Q 4.248025634765625 1.5806249999999997 4.245775634765625 1.6323749999999997 Q 4.245025634765625 1.6653749999999996 4.245025634765625 1.6919999999999997 Q 4.245025634765625 1.7186249999999996 4.245775634765625 1.7523749999999998 Q 4.248775634765625 1.8296249999999996 4.285525634765625 1.8641249999999996 Q 4.322275634765625 1.8986249999999998 4.379275634765625 1.8986249999999998 M 4.722777099609375 1.9548749999999997 Q 4.714527099609375 1.9548749999999997 4.710027099609375 1.9499999999999997 Q 4.705527099609375 1.9451249999999998 4.705527099609375 1.9376249999999997 L 4.705527099609375 1.4478749999999998 Q 4.705527099609375 1.4396249999999997 4.710027099609375 1.4347499999999997 Q 4.714527099609375 1.4298749999999996 4.722777099609375 1.4298749999999996 L 4.9057770996093755 1.4298749999999996 Q 4.990527099609375 1.4298749999999996 5.040027099609375 1.4696249999999997 Q 5.089527099609375 1.5093749999999997 5.089527099609375 1.5873749999999998 Q 5.089527099609375 1.6451249999999997 5.060652099609375 1.6814999999999998 Q 5.031777099609375 1.7178749999999996 4.982277099609375 1.7321249999999997 L 5.097777099609376 1.9316249999999997 Q 5.100027099609375 1.9361249999999997 5.100027099609375 1.9398749999999998 Q 5.100027099609375 1.9458749999999998 5.0951520996093755 1.9503749999999997 Q 5.090277099609375 1.9548749999999997 5.084277099609375 1.9548749999999997 L 5.0482770996093755 1.9548749999999997 Q 5.035527099609375 1.9548749999999997 5.029527099609375 1.9481249999999997 Q 5.0235270996093755 1.9413749999999996 5.019027099609375 1.9346249999999996 L 4.910277099609376 1.7441249999999997 L 4.779027099609375 1.7441249999999997 L 4.779027099609375 1.9376249999999997 Q 4.779027099609375 1.9451249999999998 4.774152099609375 1.9499999999999997 Q 4.769277099609376 1.9548749999999997 4.761027099609375 1.9548749999999997 L 4.722777099609375 1.9548749999999997 M 4.779027099609375 1.6803749999999997 L 4.902777099609375 1.6803749999999997 Q 4.959027099609375 1.6803749999999997 4.986777099609375 1.6567499999999997 Q 5.014527099609375 1.6331249999999997 5.014527099609375 1.5866249999999997 Q 5.014527099609375 1.5408749999999998 4.987152099609375 1.5168749999999998 Q 4.959777099609375 1.4928749999999997 4.902777099609375 1.4928749999999997 L 4.779027099609375 1.4928749999999997 L 4.779027099609375 1.6803749999999997 M 5.330302368164063 1.9548749999999997 Q 5.322802368164063 1.9548749999999997 5.317927368164063 1.9499999999999997 Q 5.313052368164063 1.9451249999999998 5.313052368164063 1.9376249999999997 L 5.313052368164063 1.4966249999999997 L 5.1690523681640625 1.4966249999999997 Q 5.161552368164063 1.4966249999999997 5.156677368164063 1.4917499999999997 Q 5.151802368164063 1.4868749999999997 5.151802368164063 1.4793749999999997 L 5.151802368164063 1.4478749999999998 Q 5.151802368164063 1.4396249999999997 5.156677368164063 1.4347499999999997 Q 5.161552368164063 1.4298749999999996 5.1690523681640625 1.4298749999999996 L 5.530552368164063 1.4298749999999996 Q 5.538802368164063 1.4298749999999996 5.543677368164063 1.4347499999999997 Q 5.548552368164063 1.4396249999999997 5.548552368164063 1.4478749999999998 L 5.548552368164063 1.4793749999999997 Q 5.548552368164063 1.4868749999999997 5.543677368164063 1.4917499999999997 Q 5.538802368164063 1.4966249999999997 5.530552368164063 1.4966249999999997 L 5.387302368164063 1.4966249999999997 L 5.387302368164063 1.9376249999999997 Q 5.387302368164063 1.9451249999999998 5.382427368164063 1.9499999999999997 Q 5.377552368164063 1.9548749999999997 5.369302368164063 1.9548749999999997 L 5.330302368164063 1.9548749999999997" fill="#bd2949" fill-rule="nonzero"></path></g><g clip-path="url(#SvgjsClipPath1011)"><g clip-path="url(#SvgjsClipPath100119d50eed-7537-4bb3-a62b-8b5550d6c4c5)"><path d=" M 2.588370972531417 -1.8221663792280722 C 2.588603030452995 -2.031191374206978 2.7579883616871586 -2.200584394464095 2.967013345916991 -2.200825940583109 L 3.637000395762402 -2.200825940583109 L 3.637000395762402 -2.849362404533013 C 3.6368488513532276 -2.983266045680671 3.528338812346027 -3.091779929153373 3.3944351766514833 -3.091936217628663 L 0.9867100376970148 -3.091936217628663 C 0.8528030458313091 -3.091784663980263 0.744287778249762 -2.983269396398713 0.7441362246013647 -2.849362404533013 L 0.7441362246013647 -1.4394762390328901 C 0.7442877782497707 -1.3055692471671756 0.8528030458313293 -1.1970539795856314 0.9867100376970293 -1.196902425937243 L 1.2781836239278646 -1.196902425937243 L 1.2781836239278646 -0.7425212650928779 C 1.2781843310091605 -0.6903815668856281 1.3095934950636985 -0.6433764212098398 1.357764804981393 -0.6234246536077719 C 1.4059361148990908 -0.6034728860057097 1.4613828413088483 -0.6145037444060422 1.4982497910058101 -0.6513734630064789 L 2.043787347921306 -1.196902425937243 L 2.588370972531417 -1.196902425937243 Z" fill="#0e1425" transform="matrix(1,0,0,1,0,0)" fill-rule="nonzero"></path></g><g clip-path="url(#SvgjsClipPath100119d50eed-7537-4bb3-a62b-8b5550d6c4c5)"><path d=" M 4.457304832586349 -0.3789183649914176 L 4.457304832586349 -0.6495859141817881 L 4.616379490008602 -0.6495859141817881 C 4.73051974984394 -0.6497137812219025 4.823018151580538 -0.7422083384696521 4.8231507627033245 -0.8563485928917798 L 4.8231507627033245 -1.8221663792280722 C 4.823022895651437 -1.9363113853869327 4.730524490754446 -2.028813634772894 4.616379490008585 -2.0289462459075303 L 2.9670133459169885 -2.0289462459075303 C 2.852871701373144 -2.028808900128572 2.7603785249019896 -1.9363080347945039 2.7602506672069964 -1.8221663792280722 L 2.7602506672069964 -0.8563142169528453 C 2.760378543396767 -0.7421753526811443 2.8528744816452933 -0.649679414432621 2.967013345916991 -0.6495515382428532 L 3.8753975322774337 -0.6495515382428532 L 4.237204289569529 -0.28774478095075695 C 4.274073150997227 -0.2508801023352869 4.3295179701709 -0.23985369900496645 4.377686295927235 -0.2598068908856761 C 4.4258546216835715 -0.2797600827663853 4.457261155678072 -0.3267636907774336 4.4572618626626745 -0.3789011770219517 Z" fill="#bd2949" transform="matrix(1,0,0,1,0,0)" fill-rule="nonzero"></path></g></g></g><defs><clipPath id="SvgjsClipPath1011"><path d=" M 0.7441362246013647 -3.091936217628663 h 4.079014538101958 v 2.841936217628663 h -4.079014538101958 Z"></path></clipPath><clipPath id="SvgjsClipPath100119d50eed-7537-4bb3-a62b-8b5550d6c4c5"><path d=" M 0.7441362246013647 -3.091936217628663 L 4.823150762703323 -3.091936217628663 L 4.823150762703323 -0.25 L 0.7441362246013647 -0.25 Z"></path></clipPath></defs></svg>