<svg xmlns="http://www.w3.org/2000/svg" version="1.1" xmlns:xlink="http://www.w3.org/1999/xlink" xmlns:svgjs="http://svgjs.dev/svgjs" viewBox="0 0 9.764882930120637 2.9051165346797565"><g transform="matrix(1,0,0,1,3.7701827740093834,0.4751207673398784)"><g><path d=" M 0.28200000000000003 1.0649999999999997 Q 0.258 1.0649999999999997 0.24375 1.0514999999999997 Q 0.2295 1.0379999999999998 0.2265 1.0184999999999997 L 0.0555 0.05699999999999972 Q 0.054 0.053999999999999604 0.054 0.05099999999999971 Q 0.054 0.0479999999999996 0.054 0.046499999999999764 Q 0.054 0.03449999999999975 0.063 0.024749999999999606 Q 0.07200000000000001 0.01499999999999968 0.0855 0.01499999999999968 L 0.243 0.01499999999999968 Q 0.28200000000000003 0.01499999999999968 0.28650000000000003 0.046499999999999764 L 0.399 0.6809999999999997 L 0.5205 0.28649999999999975 Q 0.525 0.27449999999999974 0.5355 0.2609999999999997 Q 0.546 0.24749999999999972 0.5700000000000001 0.24749999999999972 L 0.6645 0.24749999999999972 Q 0.6885 0.24749999999999972 0.6990000000000001 0.2609999999999997 Q 0.7095 0.27449999999999974 0.7125 0.28649999999999975 L 0.8355 0.6794999999999998 L 0.9465 0.046499999999999764 Q 0.9510000000000001 0.01499999999999968 0.9915 0.01499999999999968 L 1.149 0.01499999999999968 Q 1.1625 0.01499999999999968 1.1715 0.024749999999999606 Q 1.1805 0.03449999999999975 1.1805 0.046499999999999764 Q 1.1805 0.0479999999999996 1.1805 0.05099999999999971 Q 1.1805 0.053999999999999604 1.179 0.05699999999999972 L 1.008 1.0184999999999997 Q 1.0050000000000001 1.0379999999999998 0.99075 1.0514999999999997 Q 0.9765 1.0649999999999997 0.9525 1.0649999999999997 L 0.8310000000000001 1.0649999999999997 Q 0.807 1.0649999999999997 0.79425 1.0522499999999997 Q 0.7815 1.0394999999999996 0.777 1.0259999999999998 L 0.6165 0.5609999999999997 L 0.4575 1.0259999999999998 Q 0.453 1.0394999999999996 0.44025000000000003 1.0522499999999997 Q 0.4275 1.0649999999999997 0.402 1.0649999999999997 L 0.28200000000000003 1.0649999999999997 M 1.3979970703125002 1.0649999999999997 Q 1.3814970703125002 1.0649999999999997 1.3709970703125 1.0544999999999998 Q 1.3604970703125001 1.0439999999999998 1.3604970703125001 1.0274999999999996 L 1.3604970703125001 0.05249999999999977 Q 1.3604970703125001 0.03599999999999981 1.3709970703125 0.025499999999999634 Q 1.3814970703125002 0.01499999999999968 1.3979970703125002 0.01499999999999968 L 1.5674970703125002 0.01499999999999968 Q 1.5839970703125001 0.01499999999999968 1.5944970703125 0.025499999999999634 Q 1.6049970703125 0.03599999999999981 1.6049970703125 0.05249999999999977 L 1.6049970703125 1.0274999999999996 Q 1.6049970703125 1.0439999999999998 1.5944970703125 1.0544999999999998 Q 1.5839970703125001 1.0649999999999997 1.5674970703125002 1.0649999999999997 L 1.3979970703125002 1.0649999999999997 M 1.8794582519531253 1.0649999999999997 Q 1.8629582519531254 1.0649999999999997 1.8524582519531252 1.0544999999999998 Q 1.8419582519531252 1.0439999999999998 1.8419582519531252 1.0274999999999996 L 1.8419582519531252 0.05249999999999977 Q 1.8419582519531252 0.03599999999999981 1.8524582519531252 0.025499999999999634 Q 1.8629582519531254 0.01499999999999968 1.8794582519531253 0.01499999999999968 L 2.045958251953125 0.01499999999999968 Q 2.0624582519531254 0.01499999999999968 2.0729582519531253 0.025499999999999634 Q 2.0834582519531253 0.03599999999999981 2.0834582519531253 0.05249999999999977 L 2.0834582519531253 0.8639999999999997 L 2.548458251953125 0.8639999999999997 Q 2.5649582519531253 0.8639999999999997 2.5754582519531253 0.8744999999999997 Q 2.5859582519531252 0.8849999999999998 2.5859582519531252 0.9014999999999997 L 2.5859582519531252 1.0274999999999996 Q 2.5859582519531252 1.0439999999999998 2.5754582519531253 1.0544999999999998 Q 2.5649582519531253 1.0649999999999997 2.548458251953125 1.0649999999999997 L 1.8794582519531253 1.0649999999999997 M 2.7764772949218752 1.0649999999999997 Q 2.7599772949218755 1.0649999999999997 2.7494772949218755 1.0544999999999998 Q 2.7389772949218756 1.0439999999999998 2.7389772949218756 1.0274999999999996 L 2.7389772949218756 0.05249999999999977 Q 2.7389772949218756 0.03599999999999981 2.7494772949218755 0.025499999999999634 Q 2.7599772949218755 0.01499999999999968 2.7764772949218752 0.01499999999999968 L 2.9429772949218753 0.01499999999999968 Q 2.9594772949218755 0.01499999999999968 2.9699772949218755 0.025499999999999634 Q 2.9804772949218754 0.03599999999999981 2.9804772949218754 0.05249999999999977 L 2.9804772949218754 0.8639999999999997 L 3.4454772949218753 0.8639999999999997 Q 3.4619772949218754 0.8639999999999997 3.4724772949218754 0.8744999999999997 Q 3.4829772949218754 0.8849999999999998 3.4829772949218754 0.9014999999999997 L 3.4829772949218754 1.0274999999999996 Q 3.4829772949218754 1.0439999999999998 3.4724772949218754 1.0544999999999998 Q 3.4619772949218754 1.0649999999999997 3.4454772949218753 1.0649999999999997 L 2.7764772949218752 1.0649999999999997 M 3.5010395507812504 0.3794999999999997 Q 3.4815395507812505 0.3794999999999997 3.4732895507812507 0.36824999999999974 Q 3.4650395507812504 0.35699999999999976 3.4620395507812507 0.34199999999999975 L 3.4305395507812504 0.04199999999999959 Q 3.4290395507812503 0.022499999999999742 3.4387895507812507 0.01124999999999976 Q 3.4485395507812506 -2.220446049250313e-16 3.4650395507812504 -2.220446049250313e-16 L 3.6150395507812503 -2.220446049250313e-16 Q 3.6330395507812505 -2.220446049250313e-16 3.6427895507812504 0.01124999999999976 Q 3.6525395507812504 0.022499999999999742 3.6495395507812507 0.04199999999999959 L 3.6180395507812504 0.34199999999999975 Q 3.6165395507812503 0.35699999999999976 3.6082895507812505 0.36824999999999974 Q 3.6000395507812506 0.3794999999999997 3.5790395507812507 0.3794999999999997 L 3.5010395507812504 0.3794999999999997 M 4.221073974609376 1.0799999999999996 Q 4.077073974609376 1.0799999999999996 3.9803239746093757 1.0379999999999998 Q 3.8835739746093756 0.9959999999999998 3.8340739746093755 0.9284999999999997 Q 3.784573974609376 0.8609999999999998 3.7815739746093757 0.7844999999999998 Q 3.7815739746093757 0.7724999999999997 3.7905739746093756 0.7627499999999997 Q 3.7995739746093755 0.7529999999999997 3.8130739746093756 0.7529999999999997 L 3.9735739746093754 0.7529999999999997 Q 3.9930739746093757 0.7529999999999997 4.003573974609376 0.7612499999999998 Q 4.014073974609376 0.7694999999999997 4.0230739746093755 0.7814999999999996 Q 4.033573974609376 0.8069999999999997 4.056823974609376 0.8309999999999997 Q 4.080073974609376 0.8549999999999998 4.120573974609376 0.8707499999999997 Q 4.1610739746093754 0.8864999999999997 4.221073974609376 0.8864999999999997 Q 4.318573974609375 0.8864999999999997 4.367323974609375 0.8549999999999998 Q 4.416073974609375 0.8234999999999997 4.416073974609375 0.7694999999999997 Q 4.416073974609375 0.7304999999999997 4.389823974609376 0.7064999999999997 Q 4.363573974609376 0.6824999999999997 4.307323974609376 0.6629999999999997 Q 4.251073974609375 0.6434999999999997 4.158073974609375 0.6209999999999998 Q 4.0455739746093755 0.5969999999999998 3.9668239746093756 0.5587499999999997 Q 3.8880739746093758 0.5204999999999997 3.8483239746093756 0.45974999999999966 Q 3.8085739746093754 0.3989999999999997 3.8085739746093754 0.3089999999999997 Q 3.8085739746093754 0.21899999999999975 3.8580739746093755 0.14924999999999966 Q 3.9075739746093756 0.07949999999999968 3.9975739746093755 0.03974999999999973 Q 4.087573974609375 -2.220446049250313e-16 4.212073974609376 -2.220446049250313e-16 Q 4.312573974609376 -2.220446049250313e-16 4.389823974609376 0.02699999999999969 Q 4.4670739746093755 0.053999999999999604 4.518823974609376 0.0974999999999997 Q 4.570573974609376 0.14099999999999968 4.597573974609376 0.19049999999999967 Q 4.624573974609376 0.23999999999999966 4.626073974609375 0.28649999999999975 Q 4.626073974609375 0.29849999999999965 4.617073974609376 0.3082499999999997 Q 4.6080739746093755 0.3179999999999997 4.594573974609376 0.3179999999999997 L 4.426573974609376 0.3179999999999997 Q 4.411573974609375 0.3179999999999997 4.399573974609376 0.3119999999999997 Q 4.387573974609376 0.3059999999999997 4.380073974609376 0.2909999999999997 Q 4.371073974609375 0.25199999999999967 4.3268239746093755 0.22274999999999967 Q 4.282573974609376 0.19349999999999967 4.212073974609376 0.19349999999999967 Q 4.1385739746093755 0.19349999999999967 4.095823974609376 0.2204999999999997 Q 4.053073974609376 0.24749999999999972 4.053073974609376 0.3029999999999997 Q 4.053073974609376 0.33899999999999975 4.074823974609376 0.3637499999999997 Q 4.096573974609376 0.38849999999999973 4.148323974609376 0.40724999999999967 Q 4.200073974609376 0.4259999999999997 4.285573974609376 0.4484999999999997 Q 4.417573974609375 0.4754999999999997 4.500073974609376 0.5129999999999997 Q 4.582573974609375 0.5504999999999998 4.621573974609376 0.6097499999999998 Q 4.660573974609376 0.6689999999999997 4.660573974609376 0.7589999999999997 Q 4.660573974609376 0.8594999999999997 4.604323974609375 0.9314999999999998 Q 4.548073974609376 1.0034999999999998 4.449823974609376 1.0417499999999997 Q 4.351573974609376 1.0799999999999996 4.221073974609376 1.0799999999999996" fill="#1a1f3c" fill-rule="nonzero"></path></g><g><path d=" M 0.19725 1.9548749999999997 Q 0.18975 1.9548749999999997 0.184875 1.9499999999999997 Q 0.18 1.9451249999999998 0.18 1.9376249999999997 L 0.18 1.4966249999999997 L 0.036000000000000004 1.4966249999999997 Q 0.0285 1.4966249999999997 0.023625 1.4917499999999997 Q 0.01875 1.4868749999999997 0.01875 1.4793749999999997 L 0.01875 1.4478749999999998 Q 0.01875 1.4396249999999997 0.023625 1.4347499999999997 Q 0.0285 1.4298749999999996 0.036000000000000004 1.4298749999999996 L 0.3975 1.4298749999999996 Q 0.40575 1.4298749999999996 0.410625 1.4347499999999997 Q 0.41550000000000004 1.4396249999999997 0.41550000000000004 1.4478749999999998 L 0.41550000000000004 1.4793749999999997 Q 0.41550000000000004 1.4868749999999997 0.410625 1.4917499999999997 Q 0.40575 1.4966249999999997 0.3975 1.4966249999999997 L 0.25425000000000003 1.4966249999999997 L 0.25425000000000003 1.9376249999999997 Q 0.25425000000000003 1.9451249999999998 0.249375 1.9499999999999997 Q 0.2445 1.9548749999999997 0.23625000000000002 1.9548749999999997 L 0.19725 1.9548749999999997 M 0.524234619140625 1.9548749999999997 Q 0.515984619140625 1.9548749999999997 0.511484619140625 1.9499999999999997 Q 0.506984619140625 1.9451249999999998 0.506984619140625 1.9376249999999997 L 0.506984619140625 1.4478749999999998 Q 0.506984619140625 1.4396249999999997 0.511484619140625 1.4347499999999997 Q 0.515984619140625 1.4298749999999996 0.524234619140625 1.4298749999999996 L 0.833984619140625 1.4298749999999996 Q 0.842234619140625 1.4298749999999996 0.8467346191406251 1.4347499999999997 Q 0.851234619140625 1.4396249999999997 0.851234619140625 1.4478749999999998 L 0.851234619140625 1.4763749999999995 Q 0.851234619140625 1.4846249999999996 0.8467346191406251 1.4891249999999996 Q 0.842234619140625 1.4936249999999998 0.833984619140625 1.4936249999999998 L 0.578984619140625 1.4936249999999998 L 0.578984619140625 1.6578749999999998 L 0.8174846191406251 1.6578749999999998 Q 0.825734619140625 1.6578749999999998 0.830234619140625 1.6627499999999997 Q 0.8347346191406251 1.6676249999999997 0.8347346191406251 1.6758749999999996 L 0.8347346191406251 1.7036249999999997 Q 0.8347346191406251 1.7111249999999998 0.830234619140625 1.7159999999999997 Q 0.825734619140625 1.7208749999999997 0.8174846191406251 1.7208749999999997 L 0.578984619140625 1.7208749999999997 L 0.578984619140625 1.8911249999999997 L 0.839984619140625 1.8911249999999997 Q 0.848234619140625 1.8911249999999997 0.8527346191406251 1.8956249999999997 Q 0.857234619140625 1.9001249999999996 0.857234619140625 1.9083749999999997 L 0.857234619140625 1.9376249999999997 Q 0.857234619140625 1.9451249999999998 0.8527346191406251 1.9499999999999997 Q 0.848234619140625 1.9548749999999997 0.839984619140625 1.9548749999999997 L 0.524234619140625 1.9548749999999997 M 1.15273388671875 1.9623749999999998 Q 1.08373388671875 1.9623749999999998 1.03835888671875 1.9368749999999997 Q 0.99298388671875 1.9113749999999996 0.96973388671875 1.8656249999999996 Q 0.9464838867187501 1.8198749999999997 0.94423388671875 1.7591249999999996 Q 0.94348388671875 1.7283749999999998 0.94348388671875 1.6931249999999998 Q 0.94348388671875 1.6578749999999998 0.94423388671875 1.6256249999999997 Q 0.9464838867187501 1.5648749999999998 0.96973388671875 1.5191249999999996 Q 0.99298388671875 1.4733749999999997 1.03835888671875 1.4478749999999998 Q 1.08373388671875 1.4223749999999997 1.15273388671875 1.4223749999999997 Q 1.20448388671875 1.4223749999999997 1.24348388671875 1.4366249999999998 Q 1.28248388671875 1.4508749999999997 1.3083588867187501 1.4748749999999997 Q 1.33423388671875 1.4988749999999997 1.34773388671875 1.5284999999999997 Q 1.36123388671875 1.5581249999999998 1.36273388671875 1.5896249999999996 Q 1.36348388671875 1.5963749999999997 1.35860888671875 1.6008749999999998 Q 1.35373388671875 1.6053749999999996 1.34698388671875 1.6053749999999996 L 1.30573388671875 1.6053749999999996 Q 1.29898388671875 1.6053749999999996 1.29410888671875 1.6016249999999996 Q 1.28923388671875 1.5978749999999997 1.28698388671875 1.5881249999999998 Q 1.2742338867187502 1.5296249999999998 1.23935888671875 1.5078749999999996 Q 1.20448388671875 1.4861249999999997 1.15273388671875 1.4861249999999997 Q 1.09198388671875 1.4861249999999997 1.05673388671875 1.5202499999999997 Q 1.02148388671875 1.5543749999999996 1.01923388671875 1.6293749999999996 Q 1.01698388671875 1.6908749999999997 1.01923388671875 1.7553749999999997 Q 1.02148388671875 1.8303749999999996 1.05673388671875 1.8644999999999996 Q 1.09198388671875 1.8986249999999998 1.15273388671875 1.8986249999999998 Q 1.20448388671875 1.8986249999999998 1.23935888671875 1.8768749999999996 Q 1.2742338867187502 1.8551249999999997 1.28698388671875 1.7966249999999997 Q 1.28923388671875 1.7868749999999998 1.29410888671875 1.7831249999999996 Q 1.29898388671875 1.7793749999999997 1.30573388671875 1.7793749999999997 L 1.34698388671875 1.7793749999999997 Q 1.35373388671875 1.7793749999999997 1.35860888671875 1.7834999999999996 Q 1.36348388671875 1.7876249999999998 1.36273388671875 1.7943749999999996 Q 1.36123388671875 1.8258749999999997 1.34773388671875 1.8558749999999997 Q 1.33423388671875 1.8858749999999997 1.3083588867187501 1.9098749999999998 Q 1.28248388671875 1.9338749999999998 1.24348388671875 1.9481249999999997 Q 1.20448388671875 1.9623749999999998 1.15273388671875 1.9623749999999998 M 1.48799560546875 1.9548749999999997 Q 1.47974560546875 1.9548749999999997 1.47524560546875 1.9499999999999997 Q 1.47074560546875 1.9451249999999998 1.47074560546875 1.9376249999999997 L 1.47074560546875 1.4478749999999998 Q 1.47074560546875 1.4396249999999997 1.47524560546875 1.4347499999999997 Q 1.47974560546875 1.4298749999999996 1.48799560546875 1.4298749999999996 L 1.5262456054687499 1.4298749999999996 Q 1.53449560546875 1.4298749999999996 1.53937060546875 1.4347499999999997 Q 1.54424560546875 1.4396249999999997 1.54424560546875 1.4478749999999998 L 1.54424560546875 1.6548749999999997 L 1.80224560546875 1.6548749999999997 L 1.80224560546875 1.4478749999999998 Q 1.80224560546875 1.4396249999999997 1.80712060546875 1.4347499999999997 Q 1.81199560546875 1.4298749999999996 1.81949560546875 1.4298749999999996 L 1.85774560546875 1.4298749999999996 Q 1.86599560546875 1.4298749999999996 1.8708706054687498 1.4347499999999997 Q 1.87574560546875 1.4396249999999997 1.87574560546875 1.4478749999999998 L 1.87574560546875 1.9376249999999997 Q 1.87574560546875 1.9451249999999998 1.8708706054687498 1.9499999999999997 Q 1.86599560546875 1.9548749999999997 1.85774560546875 1.9548749999999997 L 1.81949560546875 1.9548749999999997 Q 1.81199560546875 1.9548749999999997 1.80712060546875 1.9499999999999997 Q 1.80224560546875 1.9451249999999998 1.80224560546875 1.9376249999999997 L 1.80224560546875 1.7223749999999998 L 1.54424560546875 1.7223749999999998 L 1.54424560546875 1.9376249999999997 Q 1.54424560546875 1.9451249999999998 1.53937060546875 1.9499999999999997 Q 1.53449560546875 1.9548749999999997 1.5262456054687499 1.9548749999999997 L 1.48799560546875 1.9548749999999997 M 2.37373388671875 1.9623749999999998 Q 2.3084838867187503 1.9623749999999998 2.26423388671875 1.9421249999999997 Q 2.21998388671875 1.9218749999999998 2.19635888671875 1.8899999999999997 Q 2.17273388671875 1.8581249999999998 2.17123388671875 1.8228749999999998 Q 2.17123388671875 1.8168749999999996 2.17610888671875 1.8119999999999996 Q 2.18098388671875 1.8071249999999996 2.18773388671875 1.8071249999999996 L 2.2259838867187502 1.8071249999999996 Q 2.23498388671875 1.8071249999999996 2.23948388671875 1.8116249999999996 Q 2.24398388671875 1.8161249999999998 2.24548388671875 1.8221249999999998 Q 2.2499838867187503 1.8401249999999998 2.26423388671875 1.8577499999999998 Q 2.27848388671875 1.8753749999999998 2.30510888671875 1.8869999999999998 Q 2.3317338867187503 1.8986249999999998 2.37373388671875 1.8986249999999998 Q 2.4382338867187503 1.8986249999999998 2.46860888671875 1.8757499999999996 Q 2.49898388671875 1.8528749999999996 2.49898388671875 1.8146249999999997 Q 2.49898388671875 1.7883749999999996 2.48285888671875 1.7722499999999997 Q 2.46673388671875 1.7561249999999997 2.43373388671875 1.7433749999999997 Q 2.40073388671875 1.7306249999999996 2.34823388671875 1.7156249999999997 Q 2.29348388671875 1.6998749999999996 2.25748388671875 1.6811249999999998 Q 2.22148388671875 1.6623749999999997 2.2038588867187503 1.6346249999999998 Q 2.18623388671875 1.6068749999999996 2.18623388671875 1.5641249999999998 Q 2.18623388671875 1.5236249999999996 2.20798388671875 1.4917499999999997 Q 2.22973388671875 1.4598749999999998 2.27098388671875 1.4411249999999995 Q 2.31223388671875 1.4223749999999997 2.36998388671875 1.4223749999999997 Q 2.41648388671875 1.4223749999999997 2.45135888671875 1.4347499999999997 Q 2.4862338867187503 1.4471249999999998 2.5094838867187503 1.4677499999999997 Q 2.5327338867187503 1.4883749999999996 2.54473388671875 1.5119999999999996 Q 2.55673388671875 1.5356249999999996 2.55748388671875 1.5581249999999998 Q 2.55748388671875 1.5633749999999997 2.5537338867187502 1.5682499999999997 Q 2.54998388671875 1.5731249999999997 2.5417338867187502 1.5731249999999997 L 2.50198388671875 1.5731249999999997 Q 2.49673388671875 1.5731249999999997 2.49110888671875 1.5701249999999998 Q 2.4854838867187503 1.5671249999999997 2.48248388671875 1.5588749999999996 Q 2.47798388671875 1.5281249999999997 2.4479838867187502 1.5071249999999996 Q 2.41798388671875 1.4861249999999997 2.36998388671875 1.4861249999999997 Q 2.3212338867187503 1.4861249999999997 2.29085888671875 1.5048749999999997 Q 2.2604838867187502 1.5236249999999996 2.2604838867187502 1.5633749999999997 Q 2.2604838867187502 1.5888749999999998 2.2747338867187503 1.6057499999999996 Q 2.28898388671875 1.6226249999999998 2.3197338867187502 1.6353749999999998 Q 2.35048388671875 1.6481249999999996 2.39998388671875 1.6623749999999997 Q 2.4599838867187502 1.6788749999999997 2.49823388671875 1.6972499999999997 Q 2.53648388671875 1.7156249999999997 2.5548588867187503 1.7429999999999997 Q 2.57323388671875 1.7703749999999996 2.57323388671875 1.8131249999999997 Q 2.57323388671875 1.8603749999999997 2.54848388671875 1.8937499999999996 Q 2.52373388671875 1.9271249999999998 2.47910888671875 1.9447499999999998 Q 2.43448388671875 1.9623749999999998 2.37373388671875 1.9623749999999998 M 2.8769908447265626 1.9623749999999998 Q 2.8139908447265625 1.9623749999999998 2.7686158447265625 1.9398749999999998 Q 2.7232408447265626 1.9173749999999996 2.6988658447265625 1.8712499999999996 Q 2.6744908447265625 1.8251249999999997 2.6744908447265625 1.7523749999999998 L 2.6744908447265625 1.4478749999999998 Q 2.6744908447265625 1.4396249999999997 2.6789908447265622 1.4347499999999997 Q 2.6834908447265624 1.4298749999999996 2.6917408447265623 1.4298749999999996 L 2.7299908447265624 1.4298749999999996 Q 2.7382408447265623 1.4298749999999996 2.7431158447265624 1.4347499999999997 Q 2.7479908447265626 1.4396249999999997 2.7479908447265626 1.4478749999999998 L 2.7479908447265626 1.7538749999999996 Q 2.7479908447265626 1.8273749999999997 2.7824908447265626 1.8626249999999998 Q 2.8169908447265626 1.8978749999999998 2.8769908447265626 1.8978749999999998 Q 2.936240844726562 1.8978749999999998 2.9711158447265626 1.8626249999999998 Q 3.005990844726562 1.8273749999999997 3.005990844726562 1.7538749999999996 L 3.005990844726562 1.4478749999999998 Q 3.005990844726562 1.4396249999999997 3.0108658447265624 1.4347499999999997 Q 3.0157408447265626 1.4298749999999996 3.0232408447265624 1.4298749999999996 L 3.0622408447265625 1.4298749999999996 Q 3.0697408447265624 1.4298749999999996 3.0746158447265626 1.4347499999999997 Q 3.0794908447265623 1.4396249999999997 3.0794908447265623 1.4478749999999998 L 3.0794908447265623 1.7523749999999998 Q 3.0794908447265623 1.8251249999999997 3.0551158447265623 1.8712499999999996 Q 3.0307408447265622 1.9173749999999996 2.9857408447265623 1.9398749999999998 Q 2.9407408447265624 1.9623749999999998 2.8769908447265626 1.9623749999999998 M 3.2294824218750002 1.9548749999999997 Q 3.2212324218750004 1.9548749999999997 3.216732421875 1.9499999999999997 Q 3.212232421875 1.9451249999999998 3.212232421875 1.9376249999999997 L 3.212232421875 1.4478749999999998 Q 3.212232421875 1.4396249999999997 3.216732421875 1.4347499999999997 Q 3.2212324218750004 1.4298749999999996 3.2294824218750002 1.4298749999999996 L 3.4199824218750003 1.4298749999999996 Q 3.4754824218750002 1.4298749999999996 3.516357421875 1.4478749999999998 Q 3.557232421875 1.4658749999999996 3.579732421875 1.5014999999999996 Q 3.602232421875 1.5371249999999996 3.602232421875 1.5903749999999997 Q 3.602232421875 1.6436249999999997 3.579732421875 1.6788749999999997 Q 3.557232421875 1.7141249999999997 3.516357421875 1.7321249999999997 Q 3.4754824218750002 1.7501249999999997 3.4199824218750003 1.7501249999999997 L 3.287232421875 1.7501249999999997 L 3.287232421875 1.9376249999999997 Q 3.287232421875 1.9451249999999998 3.282357421875 1.9499999999999997 Q 3.2774824218750003 1.9548749999999997 3.2692324218750004 1.9548749999999997 L 3.2294824218750002 1.9548749999999997 M 3.286482421875 1.6871249999999998 L 3.416232421875 1.6871249999999998 Q 3.471732421875 1.6871249999999998 3.4994824218750002 1.6623749999999997 Q 3.5272324218750004 1.6376249999999997 3.5272324218750004 1.5903749999999997 Q 3.5272324218750004 1.5438749999999997 3.5002324218750003 1.5183749999999998 Q 3.473232421875 1.4928749999999997 3.416232421875 1.4928749999999997 L 3.286482421875 1.4928749999999997 L 3.286482421875 1.6871249999999998 M 3.7185040283203126 1.9548749999999997 Q 3.7102540283203127 1.9548749999999997 3.7057540283203125 1.9499999999999997 Q 3.7012540283203124 1.9451249999999998 3.7012540283203124 1.9376249999999997 L 3.7012540283203124 1.4478749999999998 Q 3.7012540283203124 1.4396249999999997 3.7057540283203125 1.4347499999999997 Q 3.7102540283203127 1.4298749999999996 3.7185040283203126 1.4298749999999996 L 3.9090040283203127 1.4298749999999996 Q 3.9645040283203126 1.4298749999999996 4.005379028320313 1.4478749999999998 Q 4.046254028320313 1.4658749999999996 4.0687540283203125 1.5014999999999996 Q 4.0912540283203125 1.5371249999999996 4.0912540283203125 1.5903749999999997 Q 4.0912540283203125 1.6436249999999997 4.0687540283203125 1.6788749999999997 Q 4.046254028320313 1.7141249999999997 4.005379028320313 1.7321249999999997 Q 3.9645040283203126 1.7501249999999997 3.9090040283203127 1.7501249999999997 L 3.7762540283203125 1.7501249999999997 L 3.7762540283203125 1.9376249999999997 Q 3.7762540283203125 1.9451249999999998 3.7713790283203124 1.9499999999999997 Q 3.7665040283203126 1.9548749999999997 3.7582540283203127 1.9548749999999997 L 3.7185040283203126 1.9548749999999997 M 3.7755040283203125 1.6871249999999998 L 3.9052540283203125 1.6871249999999998 Q 3.9607540283203124 1.6871249999999998 3.9885040283203126 1.6623749999999997 Q 4.016254028320312 1.6376249999999997 4.016254028320312 1.5903749999999997 Q 4.016254028320312 1.5438749999999997 3.9892540283203126 1.5183749999999998 Q 3.9622540283203125 1.4928749999999997 3.9052540283203125 1.4928749999999997 L 3.7755040283203125 1.4928749999999997 L 3.7755040283203125 1.6871249999999998 M 4.379275634765625 1.9623749999999998 Q 4.314775634765625 1.9623749999999998 4.269025634765625 1.9402499999999996 Q 4.223275634765625 1.9181249999999996 4.198525634765625 1.8719999999999997 Q 4.173775634765625 1.8258749999999997 4.170775634765625 1.7561249999999997 Q 4.170025634765625 1.7231249999999996 4.170025634765625 1.6927499999999998 Q 4.170025634765625 1.6623749999999997 4.170775634765625 1.6293749999999996 Q 4.173775634765625 1.5603749999999996 4.199650634765625 1.5142499999999997 Q 4.225525634765625 1.4681249999999997 4.271650634765625 1.4452499999999997 Q 4.317775634765625 1.4223749999999997 4.379275634765625 1.4223749999999997 Q 4.440025634765625 1.4223749999999997 4.486150634765625 1.4452499999999997 Q 4.532275634765625 1.4681249999999997 4.5585256347656244 1.5142499999999997 Q 4.5847756347656246 1.5603749999999996 4.587025634765625 1.6293749999999996 Q 4.588525634765625 1.6623749999999997 4.588525634765625 1.6927499999999998 Q 4.588525634765625 1.7231249999999996 4.587025634765625 1.7561249999999997 Q 4.5847756347656246 1.8258749999999997 4.5596506347656245 1.8719999999999997 Q 4.534525634765625 1.9181249999999996 4.488775634765625 1.9402499999999996 Q 4.4430256347656245 1.9623749999999998 4.379275634765625 1.9623749999999998 M 4.379275634765625 1.8986249999999998 Q 4.436275634765625 1.8986249999999998 4.472650634765625 1.8641249999999996 Q 4.509025634765625 1.8296249999999996 4.5120256347656245 1.7523749999999998 Q 4.5135256347656245 1.7186249999999996 4.5135256347656245 1.6919999999999997 Q 4.5135256347656245 1.6653749999999996 4.5120256347656245 1.6323749999999997 Q 4.510525634765625 1.5806249999999997 4.492900634765625 1.5483749999999996 Q 4.475275634765625 1.5161249999999997 4.446025634765625 1.5011249999999996 Q 4.416775634765625 1.4861249999999997 4.379275634765625 1.4861249999999997 Q 4.341775634765625 1.4861249999999997 4.312525634765625 1.5011249999999996 Q 4.283275634765625 1.5161249999999997 4.265650634765625 1.5483749999999996 Q 4.248025634765625 1.5806249999999997 4.245775634765625 1.6323749999999997 Q 4.245025634765625 1.6653749999999996 4.245025634765625 1.6919999999999997 Q 4.245025634765625 1.7186249999999996 4.245775634765625 1.7523749999999998 Q 4.248775634765625 1.8296249999999996 4.285525634765625 1.8641249999999996 Q 4.322275634765625 1.8986249999999998 4.379275634765625 1.8986249999999998 M 4.722777099609375 1.9548749999999997 Q 4.714527099609375 1.9548749999999997 4.710027099609375 1.9499999999999997 Q 4.705527099609375 1.9451249999999998 4.705527099609375 1.9376249999999997 L 4.705527099609375 1.4478749999999998 Q 4.705527099609375 1.4396249999999997 4.710027099609375 1.4347499999999997 Q 4.714527099609375 1.4298749999999996 4.722777099609375 1.4298749999999996 L 4.9057770996093755 1.4298749999999996 Q 4.990527099609375 1.4298749999999996 5.040027099609375 1.4696249999999997 Q 5.089527099609375 1.5093749999999997 5.089527099609375 1.5873749999999998 Q 5.089527099609375 1.6451249999999997 5.060652099609375 1.6814999999999998 Q 5.031777099609375 1.7178749999999996 4.982277099609375 1.7321249999999997 L 5.097777099609376 1.9316249999999997 Q 5.100027099609375 1.9361249999999997 5.100027099609375 1.9398749999999998 Q 5.100027099609375 1.9458749999999998 5.0951520996093755 1.9503749999999997 Q 5.090277099609375 1.9548749999999997 5.084277099609375 1.9548749999999997 L 5.0482770996093755 1.9548749999999997 Q 5.035527099609375 1.9548749999999997 5.029527099609375 1.9481249999999997 Q 5.0235270996093755 1.9413749999999996 5.019027099609375 1.9346249999999996 L 4.910277099609376 1.7441249999999997 L 4.779027099609375 1.7441249999999997 L 4.779027099609375 1.9376249999999997 Q 4.779027099609375 1.9451249999999998 4.774152099609375 1.9499999999999997 Q 4.769277099609376 1.9548749999999997 4.761027099609375 1.9548749999999997 L 4.722777099609375 1.9548749999999997 M 4.779027099609375 1.6803749999999997 L 4.902777099609375 1.6803749999999997 Q 4.959027099609375 1.6803749999999997 4.986777099609375 1.6567499999999997 Q 5.014527099609375 1.6331249999999997 5.014527099609375 1.5866249999999997 Q 5.014527099609375 1.5408749999999998 4.987152099609375 1.5168749999999998 Q 4.959777099609375 1.4928749999999997 4.902777099609375 1.4928749999999997 L 4.779027099609375 1.4928749999999997 L 4.779027099609375 1.6803749999999997 M 5.330302368164063 1.9548749999999997 Q 5.322802368164063 1.9548749999999997 5.317927368164063 1.9499999999999997 Q 5.313052368164063 1.9451249999999998 5.313052368164063 1.9376249999999997 L 5.313052368164063 1.4966249999999997 L 5.1690523681640625 1.4966249999999997 Q 5.161552368164063 1.4966249999999997 5.156677368164063 1.4917499999999997 Q 5.151802368164063 1.4868749999999997 5.151802368164063 1.4793749999999997 L 5.151802368164063 1.4478749999999998 Q 5.151802368164063 1.4396249999999997 5.156677368164063 1.4347499999999997 Q 5.161552368164063 1.4298749999999996 5.1690523681640625 1.4298749999999996 L 5.530552368164063 1.4298749999999996 Q 5.538802368164063 1.4298749999999996 5.543677368164063 1.4347499999999997 Q 5.548552368164063 1.4396249999999997 5.548552368164063 1.4478749999999998 L 5.548552368164063 1.4793749999999997 Q 5.548552368164063 1.4868749999999997 5.543677368164063 1.4917499999999997 Q 5.538802368164063 1.4966249999999997 5.530552368164063 1.4966249999999997 L 5.387302368164063 1.4966249999999997 L 5.387302368164063 1.9376249999999997 Q 5.387302368164063 1.9451249999999998 5.382427368164063 1.9499999999999997 Q 5.377552368164063 1.9548749999999997 5.369302368164063 1.9548749999999997 L 5.330302368164063 1.9548749999999997" fill="#bd2949" fill-rule="nonzero"></path></g><g clip-path="url(#SvgjsClipPath1008)"><g clip-path="url(#SvgjsClipPath100123dc4628-0bc6-4d4e-8ce5-3fef5c51499c)"><path d=" M -2.012262466683817 0.8683568212290356 C -2.0120950505121202 0.7175575543458586 -1.8898934746984062 0.5953504313533275 -1.7390942155700546 0.5951761700040112 L -1.2557378784578042 0.5951761700040112 L -1.2557378784578042 0.12729517175055857 C -1.2558472088553772 0.030691553029780078 -1.3341308338993683 -0.047594845570451155 -1.4307344486860447 -0.047707598533312745 L -3.1677668349189463 -0.047707598533312745 C -3.2643728709861537 -0.04759826147018057 -3.3426602681396878 0.0306891356833556 -3.3427696052028177 0.12729517175055857 L -3.3427696052028177 1.1444452985457199 C -3.3426602681396815 1.241051334612933 -3.264372870986139 1.3193387317664653 -3.167766834918936 1.319448068829589 L -2.957485748085966 1.319448068829589 L -2.957485748085966 1.6472574102328599 C -2.9574852379683074 1.6848731425808352 -2.9348253694041877 1.7187845966074748 -2.900072596315382 1.7331786260283057 C -2.8653198232265744 1.7475726554491322 -2.8253182641091716 1.7396145384783361 -2.7987209235036525 1.713015200271458 L -2.405147592006153 1.319448068829589 L -2.012262466683817 1.319448068829589 Z" fill="#1a1f3c" transform="matrix(1,0,0,1,0,0)" fill-rule="nonzero"></path></g><g clip-path="url(#SvgjsClipPath100123dc4628-0bc6-4d4e-8ce5-3fef5c51499c)"><path d=" M -0.6639363682769179 1.9095755639896899 L -0.6639363682769179 1.7143048118430717 L -0.5491733385187354 1.7143048118430717 C -0.4668278395665104 1.7142125632777279 -0.4000956711425756 1.6474831684268763 -0.3999999999999977 1.5651376733799647 L -0.3999999999999977 0.8683568212290356 C -0.4000922485738352 0.7860078980829355 -0.4668244192778088 0.7192729538057907 -0.5491733385187478 0.719177282654665 L -1.7390942155700566 0.719177282654665 C -1.821440713508205 0.7192763695738082 -1.8881691122097761 0.7860103153387376 -1.8882613540331634 0.8683568212290356 L -1.8882613540331634 1.5651624736024945 C -1.8881690988668798 1.6475069657374561 -1.821438707705014 1.7142373568993197 -1.7390942155700546 1.7143296120656015 L -1.0837483352113448 1.7143296120656015 L -0.8227259930817175 1.975351954195229 C -0.7961272732746671 2.001947656348734 -0.756127090116169 2.00990255924797 -0.7213764699246537 1.9955075022936857 C -0.6866258497331379 1.9811124453394013 -0.663967878602985 1.9472021006476306 -0.6639673685550851 1.9095879641009539 Z" fill="#bd2949" transform="matrix(1,0,0,1,0,0)" fill-rule="nonzero"></path></g></g></g><defs><clipPath id="SvgjsClipPath1008"><path d=" M -3.3427696052028177 -0.047707598533312745 h 2.942769605202818 v 2.050290197066625 h -2.942769605202818 Z"></path></clipPath><clipPath id="SvgjsClipPath100123dc4628-0bc6-4d4e-8ce5-3fef5c51499c"><path d=" M -3.3427696052028177 -0.04770759853331288 L -0.3999999999999999 -0.04770759853331288 L -0.3999999999999999 2.0025825985333126 L -3.3427696052028177 2.0025825985333126 Z"></path></clipPath></defs></svg>